<svg width="140" height="28" fill="none" xmlns="http://www.w3.org/2000/svg"><g clip-path="url(#clip0)" fill="#fff"><path d="M10.02 0c3.698.536 6.026 3.607 5.854 7.458-.123 2.608-1.225 4.63-3.527 5.922-1.078.61-2.279.878-3.528.878H4.14v7.41H.122c-.024-.025-.049-.074-.098-.098 0-.22-.024-.44-.024-.658V0h10.019zM4.163 10.724c1.52 0 3.014.122 4.459-.024 1.837-.171 2.793-1.195 3.038-2.998.269-2.096-.71-3.949-2.793-4.144-1.543-.146-3.111-.024-4.704-.024v7.19zM17.27.122c0-.049 0-.073-.024-.122h3.993v.122H17.27z"/><path d="M17.27.122h3.969c.024 1 .049 1.998.049 2.973v5.167c.392-.292.955-.804 1.592-1.243 2.23-1.56 4.63-1.73 7.08-.633 1.273.56 1.935 1.706 2.278 2.997.122.44.22.902.22 1.365.025 3.607 0 7.214 0 10.87H28.49v-.633V12.6c0-.585-.074-1.195-.22-1.78-.27-.975-.956-1.462-1.985-1.535-2.646-.17-4.801 1.682-4.9 4.338-.122 2.437-.073 4.85-.073 7.263v.756h-4.017c0-.122-.025-.268-.025-.39V.56c-.024-.147 0-.293 0-.44zM88.238 14.648H77.043c.147 2.218 1.861 3.85 4.14 4.046 1.788.146 3.38-.366 4.85-1.34.147-.098.294-.196.49-.318.514.926 1.029 1.828 1.543 2.779-1.151.975-2.45 1.584-3.895 1.925-3.086.731-6.001.366-8.525-1.706-1.567-1.292-2.474-2.973-2.694-4.972-.343-3.07.465-5.727 3.013-7.702 2.596-2.047 6.932-2.169 9.603-.219 1.739 1.267 2.474 3.095 2.67 5.143.073.755 0 1.535 0 2.364zM77.19 11.967h6.932c.123-1.633-.98-2.974-2.67-3.169-1.813-.243-3.846.707-4.262 3.169zM54.653 11.87c.171-1.439-.54-2.462-1.936-2.755-1.91-.39-3.6.244-5.218 1.17-.098.049-.171.098-.318.195a286.282 286.282 0 01-1.519-2.778c1.127-.829 2.376-1.292 3.675-1.609 1.861-.463 3.748-.512 5.585.122 2.327.78 3.601 2.486 3.748 4.85.147 2.437.073 4.899.073 7.36v3.242h-3.699v-2.29c-.832 1.315-1.886 2.168-3.307 2.485-2.351.536-4.483.17-6.148-1.73-1.74-1.999-1.225-5.143 1.029-6.58 1.347-.854 2.866-1.268 4.433-1.439 1.2-.122 2.401-.17 3.602-.244zm.024 2.583c-1.42.195-2.793.292-4.14.56-1.372.293-2.033 1.292-1.813 2.389.245 1.121 1.47 1.803 2.793 1.584 1.91-.341 3.282-2.193 3.16-4.533zM59.944 19.742c.613-.902 1.2-1.78 1.813-2.657.515.317.98.658 1.494.902 1.25.634 2.548.926 3.969.585.563-.146 1.004-.463 1.078-1.073.073-.584-.245-.999-.76-1.243-.955-.463-1.96-.828-2.89-1.316-.98-.511-2.082-.95-2.866-1.706-2.23-2.071-1.617-5.46 1.2-6.727 2.964-1.34 5.904-1.072 8.696.634.147.098.27.22.417.366-.49.95-.98 1.876-1.495 2.851-1.249-.902-2.596-1.365-4.115-1.291-.367.024-.808.048-1.102.243-.343.22-.637.585-.784.975-.172.463.147.878.563 1.072 1.078.512 2.18.975 3.283 1.463 1.274.56 2.548 1.145 3.331 2.364 1.372 2.17.515 4.899-1.91 6.093-3.013 1.462-7.398.804-9.922-1.535zM110.481 27.736h-2.131V6.386h1.984v2.632c1.078-1.755 2.499-2.632 4.336-2.95 3.185-.56 6.174.927 7.398 3.925 1.103 2.705 1.127 5.483-.122 8.189-1.788 3.948-7.031 5.142-10.313 2.388-.417-.365-.735-.828-1.152-1.291v8.457zm-.024-13.697c-.098 1.242.245 2.437.857 3.607 1.666 3.192 6.051 3.485 8.133.536 1.029-1.463 1.274-3.12 1.152-4.826-.123-1.78-.711-3.363-2.181-4.533-1.837-1.463-5.218-1.073-6.638.804-.98 1.267-1.372 2.73-1.323 4.412zM127.604 27.736h-2.131V6.386h1.984v2.632c1.078-1.755 2.499-2.632 4.336-2.95 3.185-.56 6.174.927 7.398 3.925 1.103 2.705 1.127 5.483-.122 8.189-1.788 3.948-7.031 5.142-10.313 2.388-.417-.365-.735-.828-1.152-1.291v8.457zm0-13.697c-.098 1.242.245 2.437.858 3.607 1.666 3.192 6.051 3.485 8.133.536 1.029-1.463 1.274-3.12 1.151-4.826-.122-1.78-.71-3.363-2.18-4.533-1.837-1.463-5.218-1.073-6.639.804-1.004 1.267-1.396 2.73-1.323 4.412zM106.904 21.643h-2.302c-.833-2.218-1.691-4.46-2.548-6.752h-8.99c-.833 2.243-1.666 4.485-2.523 6.752h-2.303c2.719-7.141 5.438-14.258 8.157-21.375h2.377c2.67 7.092 5.389 14.185 8.132 21.375zm-5.585-8.652c-1.274-3.51-2.547-6.922-3.748-10.237-1.225 3.315-2.523 6.751-3.821 10.237h7.569zM38.901 10.066a3.18 3.18 0 00.196-.512c1.054-2.925 4.091-4.07 5.757-3.534v3.388c0 .122-.024.219-.024.34-.441 0-.833-.023-1.225 0-2.474.245-4.165 1.926-4.336 4.485-.147 2.194-.074 4.387-.123 6.581v.829h-3.993V6.166h3.797v3.924M.024 21.545c.025.025.05.073.098.098-.024-.025-.073-.049-.098-.098z"/><path d="M127.605 19.279c-.025 0-.025-.025-.049-.025.024 0 .024.025.049.025z"/></g><defs><clipPath id="clip0"><path fill="#fff" d="M0 0h140v27.736H0z"/></clipPath></defs></svg>