<svg xmlns="http://www.w3.org/2000/svg" width="300" height="300"><circle xmlns="http://www.w3.org/2000/svg" cx="150" cy="150" r="40" transform="rotate(212.217 150 150)" fill="none" stroke="#8492a6" stroke-width=".536" stroke-miterlimit="5.357" stroke-dasharray="6.5724,6.5724"><animateTransform attributeName="transform" attributeType="XML" type="rotate" from="0 150 150" to="360 150 150" dur="10s" repeatCount="indefinite"/></circle><circle xmlns="http://www.w3.org/2000/svg" r="32" transform="translate(150 150)" fill="#e5e9f2"/><g><linearGradient id="a" gradientUnits="userSpaceOnUse" x1="330.844" y1="100.646" x2="334.846" y2="102.293" gradientTransform="matrix(1 0 0 -1 -178.21 248.78)"><stop offset="0" stop-color="#f60"/><stop offset="1" stop-color="#fc0"/></linearGradient><path d="M154.8 138.5c-4.6.7-7.7 5.1-7 9.6s5.1 7.7 9.6 7h.2l-2.8-16.6z" fill-rule="evenodd" clip-rule="evenodd" fill="url(#a)"/><linearGradient id="b" gradientUnits="userSpaceOnUse" x1="323.51" y1="95.943" x2="339.876" y2="117.372" gradientTransform="matrix(1 0 0 -1 -178.21 248.78)"><stop offset="0" stop-color="#005082"/><stop offset=".6" stop-color="#1e82c0"/><stop offset="1" stop-color="#3db5ff"/></linearGradient><path d="M137.8 142.4c-2-1.2-3.4-3.1-3.8-5.4 2.9 1.9 9.5-1.7 15.5-2.7 4.2-.7 8.6.3 12.1 2.8l-.9 2-4.3 4.8-2.8 11c-.8 2.9-.2 7 5.4 10.9-15.1 2.5-27-10.8-21.2-23.4" fill-rule="evenodd" clip-rule="evenodd" fill="url(#b)"/><linearGradient id="c" gradientUnits="userSpaceOnUse" x1="325.982" y1="85.331" x2="335.115" y2="105.842" gradientTransform="matrix(1 0 0 -1 -178.21 248.78)"><stop offset="0" stop-color="#005082"/><stop offset=".6" stop-color="#1e82c0"/><stop offset="1" stop-color="#3db5ff"/></linearGradient><path d="M160.7 138.9l-4.4 4.9-2.8 11c-.8 2.9.9 7.3 5.4 10.9-19.8-1.2-21.9-24.8-4.6-28.5 1.9-.4 4.2.9 6.4 1.7" fill-rule="evenodd" clip-rule="evenodd" fill="url(#c)"/><linearGradient id="d" gradientUnits="userSpaceOnUse" x1="325.417" y1="98.294" x2="339.309" y2="109.126" gradientTransform="matrix(1 0 0 -1 -178.21 248.78)"><stop offset="0" stop-color="#e6e6e6"/><stop offset="1" stop-color="#fefefe"/></linearGradient><path d="M160.4 138.6c.1.1.3.2.4.2l-7.2 16c-3.5-.7-6.1-2.9-6.8-7.2-.8-4.3 2.4-9.5 7.2-10.3 2.2-.5 4.5 0 6.4 1.3" fill-rule="evenodd" clip-rule="evenodd" fill="url(#d)"/><linearGradient id="e" gradientUnits="userSpaceOnUse" x1="336.754" y1="100.45" x2="345.232" y2="101.103" gradientTransform="scale(1 -1) rotate(-.79 -17671.543 12861.228)"><stop offset="0" stop-color="#f60"/><stop offset="1" stop-color="#fc0"/></linearGradient><path d="M161.5 136.9c4.8 3.5 5.9 10.2 2.5 15-1.7 2.3-4.2 3.9-7 4.4 2.1-2.9-4.6-4.8-3.2-8.4.9-2.3 3.2-1 4.2-3.1l3.5-7.9z" fill-rule="evenodd" clip-rule="evenodd" fill="url(#e)"/><path d="M154.7 139.3c-1.4 0-2.6 1.1-2.6 2.6s1.1 2.6 2.6 2.6c1.4 0 2.6-1.1 2.6-2.6s-1.2-2.6-2.6-2.6" fill-rule="evenodd" clip-rule="evenodd"/><path xmlns="http://www.w3.org/2000/svg" d="M155.4 140c-.5 0-.9.4-.9.9s.4.9.9.9.9-.4.9-.9-.4-.9-.9-.9" fill-rule="evenodd" clip-rule="evenodd" fill="#fff"/></g></svg>